<?xml version="1.0" encoding="UTF-8"?>
<svg width="128px" height="97px" viewBox="0 0 128 97" version="1.1" xmlns="http://www.w3.org/2000/svg" xmlns:xlink="http://www.w3.org/1999/xlink">
    <title>编组 37</title>
    <defs>
        <filter id="filter-1">
            <feColorMatrix in="SourceGraphic" type="matrix" values="0 0 0 0 0.160784 0 0 0 0 0.474510 0 0 0 0 1.000000 0 0 0 1.000000 0"></feColorMatrix>
        </filter>
    </defs>
    <g id="配置中心详情页" stroke="none" stroke-width="1" fill="none" fill-rule="evenodd">
        <g id="积木搭建系统-初始化" transform="translate(-640.000000, -372.000000)">
            <g id="编组-37" transform="translate(640.000000, 372.000000)">
                <g id="Image-upload-rafiki" fill-rule="nonzero">
                    <g id="freepik--background-complete--inject-34">
                        <rect id="矩形" fill="#EBEBEB" x="0" y="83.8144" width="128" height="1"></rect>
                        <path d="M60.672,72.3968 L11.24096,72.3968 C10.4346522,72.3953879 9.78176,71.7413491 9.78176,70.93504 L9.78176,1.44896 C9.7887758,0.6476523 10.4396228,0.00137268217 11.24096,3.63797881e-15 L60.672,3.63797881e-15 C61.4793078,3.63797881e-15 62.13376,0.654452244 62.13376,1.46176 L62.13376,70.93504 C62.13376,71.7423478 61.4793078,72.3968 60.672,72.3968 Z M11.24096,0.0512 C10.4699984,0.05261202 9.84576,0.677997106 9.84576,1.44896 L9.84576,70.93504 C9.84576,71.7060029 10.4699984,72.331388 11.24096,72.3328 L60.672,72.3328 C61.4433772,72.3313911 62.0683511,71.7064172 62.06976,70.93504 L62.06976,1.44896 C62.0683511,0.677582812 61.4433772,0.0526089116 60.672,0.0512 L11.24096,0.0512 Z" id="形状" fill="#EBEBEB"></path>
                        <path d="M116.04736,72.3968 L66.61376,72.3968 C65.8070366,72.3953909 65.1534091,71.7417634 65.152,70.93504 L65.152,1.44896 C65.160409,0.647239772 65.8119968,0.00135758773 66.61376,0 L116.04736,0 C116.847699,0.00277266224 117.496997,0.648647081 117.504,1.44896 L117.504,70.93504 C117.504,71.7403525 116.852668,72.3939793 116.04736,72.3968 Z M66.61376,0.0512 C65.8423828,0.0526089116 65.2174089,0.677582812 65.216,1.44896 L65.216,70.93504 C65.2174089,71.7064172 65.8423828,72.3313911 66.61376,72.3328 L116.04736,72.3328 C116.818737,72.3313911 117.443711,71.7064172 117.44512,70.93504 L117.44512,1.44896 C117.443711,0.677582812 116.818737,0.0526089116 116.04736,0.0512 L66.61376,0.0512 Z" id="形状" fill="#EBEBEB"></path>
                        <rect id="矩形" fill="#EBEBEB" x="44.65664" y="86.25152" width="6.656" height="1"></rect>
                        <rect id="矩形" fill="#EBEBEB" x="13.42976" y="85.55776" width="13.8496" height="1"></rect>
                        <rect id="矩形" fill="#EBEBEB" x="37.66272" y="88.62976" width="6.73792" height="1"></rect>
                        <rect id="矩形" fill="#EBEBEB" x="66.10688" y="88.19968" width="9.94048" height="1"></rect>
                        <rect id="矩形" fill="#EBEBEB" x="78.32576" y="88.19968" width="2.73664" height="1"></rect>
                        <rect id="矩形" fill="#EBEBEB" x="101.2096" y="87.11936" width="13.96736" height="1"></rect>
                        <rect id="矩形" fill="#E6E6E6" x="19.69152" y="9.28" width="37.98528" height="40.08448"></rect>
                        <path d="M61.74976,7.98208 L17.23392,7.98208 C17.0246704,7.98208 16.85504,8.15171035 16.85504,8.36096 L16.85504,8.36096 C16.85504,8.46121141 16.8950368,8.55731988 16.9661651,8.62796763 C17.0372935,8.69861537 17.1336709,8.73796198 17.23392,8.73728 L61.74976,8.73728 C61.9575958,8.73728 62.1260887,8.5687958 62.1260887,8.36096 L62.1260887,8.36096 C62.126762,8.26071091 62.0874154,8.16433347 62.0167676,8.09320513 C61.9461199,8.02207679 61.8500114,7.98208 61.74976,7.98208 L61.74976,7.98208 Z" id="路径" fill="#E6E6E6"></path>
                        <rect id="矩形" fill="#F0F0F0" x="20.44672" y="9.28" width="38.84544" height="40.08448"></rect>
                        <rect id="矩形" fill="#E6E6E6" x="19.69152" y="49.36448" width="37.98528" height="1.4976"></rect>
                        <rect id="矩形" fill="#F0F0F0" x="23.1296" y="49.36448" width="38.84544" height="1.4976"></rect>
                        <rect id="矩形" fill="#FAFAFA" transform="translate(39.868160, 29.323520) rotate(90.000000) translate(-39.868160, -29.323520) " x="22.08256" y="12.15744" width="35.5712" height="34.33216"></rect>
                        <polygon id="路径" fill="#FFFFFF" points="30.49472 47.10912 43.74016 11.53536 49.99168 11.53536 36.7488 47.10912"></polygon>
                        <polygon id="路径" fill="#FFFFFF" points="38.09024 47.10912 51.33568 11.53536 53.7728 11.53536 40.52736 47.10912"></polygon>
                        <polygon id="矩形" fill="#E6E6E6" transform="translate(56.890880, 29.320960) rotate(90.000000) translate(-56.890880, -29.320960) " points="39.10528 29.1776 74.67648 29.1776 74.67648 29.46432 39.10528 29.46432"></polygon>
                        <g id="编组" opacity="0.6" transform="translate(16.896000, 7.168000)">
                            <polygon id="路径" fill="#F0F0F0" points="4.87424 36.34688 0.10496 36.34688 2.6752 0.1408 7.44448 0.1408"></polygon>
                            <polygon id="路径" fill="#E6E6E6" points="6.7328 36.34688 3.01568 36.34688 5.58592 0.1408 9.30304 0.1408"></polygon>
                            <polygon id="路径" fill="#F0F0F0" points="9.64352 36.34688 4.87424 36.34688 7.44448 0.1408 12.21376 0.1408"></polygon>
                            <polygon id="路径" fill="#E6E6E6" points="11.50208 36.34688 7.78496 36.34688 10.35776 0.1408 14.07232 0.1408"></polygon>
                            <polygon id="路径" fill="#F0F0F0" points="14.4128 36.34688 9.64352 36.34688 12.21376 0.1408 16.9856 0.1408"></polygon>
                        </g>
                        <g id="编组" opacity="0.6" transform="translate(51.456000, 7.168000)">
                            <polygon id="路径" fill="#F0F0F0" points="7.04768 36.34688 9.74336 36.34688 8.29184 0.1408 5.59616 0.1408"></polygon>
                            <polygon id="路径" fill="#E6E6E6" points="5.99808 36.34688 8.09728 36.34688 6.64576 0.1408 4.544 0.1408"></polygon>
                            <polygon id="路径" fill="#F0F0F0" points="4.352 36.34688 7.04768 36.34688 5.59616 0.1408 2.90048 0.1408"></polygon>
                            <polygon id="路径" fill="#E6E6E6" points="3.3024 36.34688 5.4016 36.34688 3.95008 0.1408 1.84832 0.1408"></polygon>
                            <polygon id="路径" fill="#F0F0F0" points="1.65632 36.34688 4.352 36.34688 2.90048 0.1408 0.2048 0.1408"></polygon>
                        </g>
                        <rect id="矩形" fill="#E6E6E6" x="82.9568" y="7.3088" width="26.26816" height="34.92352"></rect>
                        <rect id="矩形" fill="#F5F5F5" x="83.776" y="7.3088" width="27.4432" height="34.92352"></rect>
                        <polygon id="矩形" fill="#FFFFFF" transform="translate(97.495853, 24.768318) rotate(-85.380000) translate(-97.495853, -24.768318) " points="82.3329733 13.3455976 112.658733 13.3455976 112.658733 36.1910376 82.3329733 36.1910376"></polygon>
                        <polygon id="矩形" fill="#E6E6E6" transform="translate(108.599269, 25.665257) rotate(-85.380000) translate(-108.599269, -25.665257) " points="93.4363891 25.3836568 123.762149 25.3836568 123.762149 25.9468568 93.4363891 25.9468568"></polygon>
                        <rect id="矩形" fill="#F5F5F5" x="97.9968" y="55.27808" width="14.67136" height="28.53632"></rect>
                        <rect id="矩形" fill="#F0F0F0" x="111.45728" y="55.27808" width="1.21088" height="28.53632"></rect>
                        <rect id="矩形" fill="#E6E6E6" transform="translate(82.237440, 62.127360) rotate(180.000000) translate(-82.237440, -62.127360) " x="65.34656" y="56.0896" width="33.78176" height="12.07552"></rect>
                        <rect id="矩形" fill="#F0F0F0" transform="translate(89.818880, 56.345600) rotate(180.000000) translate(-89.818880, -56.345600) " x="66.97216" y="55.27552" width="45.69344" height="2.14016"></rect>
                        <rect id="矩形" fill="#F5F5F5" x="52.30336" y="55.27808" width="14.67136" height="28.53632"></rect>
                        <path d="M52.83328,64.36864 L52.89984,64.36864 C54.8495377,64.36864 56.43008,65.9491823 56.43008,67.89888 L56.43008,83.8144 L49.30304,83.8144 L49.30304,67.89888 C49.30304,65.9491823 50.8835823,64.36864 52.83328,64.36864 L52.83328,64.36864 Z" id="路径" fill="#E6E6E6"></path>
                        <rect id="矩形" fill="#F0F0F0" x="65.76384" y="55.27808" width="1.21088" height="28.53632"></rect>
                        <polygon id="路径" fill="#F0F0F0" points="83.48672 55.27808 80.32256 55.27808 81.09056 49.11616 84.25728 49.11616"></polygon>
                        <polygon id="路径" fill="#F5F5F5" points="84.18816 55.27808 81.02144 55.27808 81.792 49.11616 84.95616 49.11616"></polygon>
                        <polygon id="路径" fill="#F0F0F0" points="84.57216 52.19584 81.408 52.19584 81.792 49.11616 84.95616 49.11616"></polygon>
                        <path d="M72.94208,51.4560106 L95.33184,51.4560106 C95.4206553,51.4560106 95.505177,51.4177811 95.5639392,51.351184 C95.6227013,51.2845869 95.6500502,51.1959702 95.63904,51.10784 L93.9136,37.30432 C93.8942411,37.1493623 93.7625622,37.03296 93.6064,37.03296 L71.21664,37.03296 C71.1295415,37.0346781 71.0471187,37.0726956 70.9892725,37.1378333 C70.9314263,37.2029711 70.9034143,37.2893086 70.912,37.376 L72.63232,51.2 C72.6596772,51.3492499 72.7903486,51.4572428 72.94208,51.4560106 L72.94208,51.4560106 Z" id="路径" fill="#F0F0F0"></path>
                        <path d="M73.27488,51.4560953 L95.66464,51.4560953 C95.7534553,51.4560953 95.837977,51.4177811 95.8967392,51.351184 C95.9555013,51.2845869 95.9828502,51.1959702 95.97184,51.10784 L94.2464,37.30432 C94.2270411,37.1493623 94.0953622,37.03296 93.9392,37.03296 L71.54944,37.03296 C71.4604525,37.03296 71.375751,37.0711959 71.3166006,37.137679 C71.2574501,37.2041622 71.2294682,37.2927203 71.23968,37.38112 L72.96,51.2 C72.98767,51.3511881 73.121227,51.459771 73.27488,51.4560953 L73.27488,51.4560953 Z" id="路径" fill="#F5F5F5"></path>
                        <path d="M95.24992,50.688 L93.63456,37.76768 C93.6281672,37.7246641 93.5910058,37.6929676 93.54752,37.6934348 L72.04352,37.6934348 C72.0185467,37.6932665 71.994702,37.7038285 71.9780495,37.7224401 C71.961397,37.7410517 71.9535413,37.7659196 71.95648,37.79072 L73.57184,50.71104 C73.5782328,50.7540559 73.6153942,50.7857524 73.65888,50.7852852 L95.16288,50.7852852 C95.1878533,50.7854535 95.211698,50.7748915 95.2283505,50.7562799 C95.245003,50.7376683 95.2528587,50.7128004 95.24992,50.688 L95.24992,50.688 Z" id="路径" fill="#E6E6E6"></path>
                        <polygon id="路径" fill="#EBEBEB" points="92.95616 50.79552 87.27296 37.70112 82.28864 37.70112 87.97184 50.79552"></polygon>
                        <polygon id="路径" fill="#EBEBEB" points="87.01184 50.79552 81.32864 37.70112 79.53408 37.70112 85.21728 50.79552"></polygon>
                        <path d="M81.90464,54.70208 L87.06048,54.70208 L87.06048,54.76608 C87.06048,55.0488498 86.8312498,55.27808 86.54848,55.27808 L82.41664,55.27808 C82.1338702,55.27808 81.90464,55.0488498 81.90464,54.76608 L81.90464,54.70208 Z" id="路径" fill="#F5F5F5" transform="translate(84.482560, 54.990080) rotate(-180.000000) translate(-84.482560, -54.990080) "></path>
                        <path d="M79.01184,54.70208 L82.5088,54.70208 L82.5088,54.76608 C82.5088,55.0488498 82.2795698,55.27808 81.9968,55.27808 L79.5264,55.27808 C79.2436302,55.27808 79.0144,55.0488498 79.0144,54.76608 L79.0144,54.70208 L79.01184,54.70208 Z" id="路径" fill="#F0F0F0" transform="translate(80.760320, 54.990080) rotate(180.000000) translate(-80.760320, -54.990080) "></path>
                        <polygon id="路径" fill="#F5F5F5" points="92.76416 55.27808 76.8256 55.27808 76.39552 53.99808 90.69056 53.99808"></polygon>
                        <polygon id="路径" fill="#F0F0F0" points="78.5792 55.27808 75.94496 55.27808 75.58912 53.99808 78.22336 53.99808"></polygon>
                        <path d="M68.97152,54.20544 L73.50784,54.20544 L73.50784,54.20544 C73.50784,54.7964289 73.0287489,55.27552 72.43776,55.27552 L70.0416,55.27552 C69.4506111,55.27552 68.97152,54.7964289 68.97152,54.20544 L68.97152,54.20544 L68.97152,54.20544 Z" id="路径" fill="#F0F0F0" transform="translate(71.239680, 54.740480) rotate(-180.000000) translate(-71.239680, -54.740480) "></path>
                        <rect id="矩形" fill="#E0E0E0" transform="translate(25.063680, 73.480960) rotate(180.000000) translate(-25.063680, -73.480960) " x="22.84032" y="63.14752" width="4.44672" height="20.66688"></rect>
                        <polygon id="路径" fill="#E6E6E6" points="42.58304 83.8144 24.60672 83.8144 22.38464 59.392 40.36096 59.392"></polygon>
                        <polygon id="路径" fill="#F0F0F0" points="43.51488 83.8144 25.53856 83.8144 23.31392 59.392 41.2928 59.392"></polygon>
                        <polygon id="路径" fill="#FFFFFF" points="27.99616 81.11104 26.26304 62.09536 38.8352 62.09536 40.56576 81.11104"></polygon>
                    </g>
                    <g id="freepik--Shadow--inject-34" transform="translate(14.336000, 89.344000)" fill="#F5F5F5">
                        <ellipse id="freepik--path--inject-34" cx="49.664" cy="3.13344" rx="49.63584" ry="2.89792"></ellipse>
                    </g>
                    <g id="freepik--upload-window--inject-34" transform="translate(23.832000, 15.360000)">
                        <polygon id="矩形" fill="#407BFF" transform="translate(1.458423, 17.580329) rotate(-1.870000) translate(-1.458423, -17.580329) " points="1.3304228 15.8740887 1.5864228 15.8740887 1.5864228 19.2865687 1.3304228 19.2865687"></polygon>
                        <polygon id="矩形" fill="#407BFF" transform="translate(1.333309, 13.742625) rotate(-1.870000) translate(-1.333309, -13.742625) " points="1.20530856 12.9311051 1.46130856 12.9311051 1.46130856 14.5541451 1.20530856 14.5541451"></polygon>
                        <path d="M4.8912,37.5987415 L53.75136,37.5987415 C54.2791065,37.6012029 54.7849778,37.3880597 55.151819,37.0086521 C55.5186602,36.6292445 55.7146503,36.1164837 55.6944,35.58912 L54.6064,2.25024 C54.5614055,1.13471716 53.649185,0.250651576 52.5328,0.240619037 L3.67264,0.240619037 C3.14467637,0.238186154 2.63856727,0.451250574 2.2713256,0.830572559 C1.90408394,1.20989454 1.70750571,1.72263217 1.72704,2.25024 L2.81504,35.584 C2.85870821,36.7019419 3.77245095,37.5886441 4.8912,37.5987415 Z" id="路径" fill="#407BFF"></path>
                        <path d="M5.04736,37.598741 L53.90752,37.598741 C54.4354836,37.6011738 54.9415927,37.3881094 55.3088344,37.0087874 C55.6760761,36.6294655 55.8726543,36.1167278 55.85312,35.58912 L54.76,2.25024 C54.7136776,1.13430868 53.800688,0.250588806 52.68384,0.240618548 L3.8288,0.240618548 C3.30105346,0.238157091 2.79518223,0.451300345 2.42834102,0.830707916 C2.06149981,1.21011549 1.86550969,1.72287627 1.88576,2.25024 L2.97376,35.584 C3.01609594,36.701533 3.92907129,37.5885844 5.04736,37.598741 Z" id="路径" fill="#407BFF"></path>
                        <path d="M5.04736,37.598741 L53.90752,37.598741 C54.4354836,37.6011738 54.9415927,37.3881094 55.3088344,37.0087874 C55.6760761,36.6294655 55.8726543,36.1167278 55.85312,35.58912 L54.76,2.25024 C54.7136776,1.13430868 53.800688,0.250588806 52.68384,0.240618548 L3.8288,0.240618548 C3.30105346,0.238157091 2.79518223,0.451300345 2.42834102,0.830707916 C2.06149981,1.21011549 1.86550969,1.72287627 1.88576,2.25024 L2.97376,35.584 C3.01609594,36.701533 3.92907129,37.5885844 5.04736,37.598741 Z" id="路径" fill="#FFFFFF" opacity="0.5"></path>
                        <path d="M52.56608,1.24416 L3.70336,1.24416 L3.53952,1.24416 C2.28768,1.34656 2.46688,3.24608 3.72896,3.24608 L52.6736,3.24608 C53.93312,3.24608 53.98944,1.34656 52.72992,1.24416 C52.67616,1.24672 52.61984,1.24416 52.56608,1.24416 Z" id="路径" fill="#407BFF" opacity="0.5"></path>
                        <path d="M4.93728,2.25024 C4.94146565,2.37078284 4.89630564,2.48781836 4.81223409,2.57430576 C4.72816254,2.66079316 4.61245303,2.70924985 4.49184,2.70848904 C4.23623742,2.70734703 4.02661247,2.50561119 4.01568,2.25024 C4.01077829,2.12926209 4.05562003,2.01155205 4.13977135,1.92449897 C4.22392266,1.83744589 4.34004546,1.78864087 4.46112,1.78943034 C4.71821239,1.7893062 4.92898673,1.99328137 4.93728,2.25024 L4.93728,2.25024 Z" id="路径" fill="#FAFAFA"></path>
                        <path d="M6.504,2.25024 C6.5089276,2.37098726 6.46401134,2.4884526 6.37977789,2.57510655 C6.29554444,2.6617605 6.17939838,2.70998571 6.05856,2.70848 C5.80348207,2.7060582 5.59460023,2.50503751 5.5824,2.25024 C5.57749829,2.12926209 5.62234003,2.01155205 5.70649135,1.92449897 C5.79064266,1.83744589 5.90676546,1.78864087 6.02784,1.78943034 C6.28493239,1.7893062 6.49570673,1.99328137 6.504,2.25024 L6.504,2.25024 Z" id="路径" fill="#FAFAFA"></path>
                        <circle id="椭圆形" fill="#FAFAFA" transform="translate(7.612248, 2.251411) rotate(-45.490000) translate(-7.612248, -2.251411) " cx="7.6122476" cy="2.25141057" r="1"></circle>
                        <path d="M5.99456,34.2707432 L52.74528,34.2707432 C52.9365053,34.2722765 53.1200158,34.195407 53.2530426,34.0580265 C53.3860695,33.920646 53.4569916,33.7347561 53.44928,33.54368 L52.55328,6.12352 C52.5318677,5.72130459 52.2033554,5.40396615 51.80064,5.39645681 L5.05248,5.39645681 C4.86125471,5.39492348 4.67774421,5.47179304 4.54471736,5.6091735 C4.4116905,5.74655396 4.34076836,5.93244393 4.34848,6.12352 L5.24192,33.536 C5.25942256,33.9412293 5.58902659,34.2629857 5.99456,34.2707432 L5.99456,34.2707432 Z" id="路径" fill="#FFFFFF"></path>
                        <g id="编组" opacity="0.3" transform="translate(17.384000, 8.704000)" fill="#407BFF">
                            <polygon id="路径" points="22.91968 22.17472 22.06464 22.17472 22.06464 21.93152 22.6688 21.93152 22.64832 21.32736 22.89152 21.31968"></polygon>
                            <path d="M20.70528,22.9853867 L19.34592,22.9853867 L19.34592,21.91872 L20.70528,21.91872 L20.70528,22.9853867 Z M17.98656,22.9853867 L16.64,22.9853867 L16.64,21.91872 L17.99936,21.91872 L17.98656,22.9853867 Z M15.26784,22.9853867 L13.90848,22.9853867 L13.90848,21.91872 L15.26784,21.91872 L15.26784,22.9853867 Z M12.54912,22.9853867 L11.18976,22.9853867 L11.18976,21.91872 L12.544,21.91872 L12.54912,22.9853867 Z M9.83296,22.9853867 L8.47104,22.9853867 L8.47104,21.91872 L9.83296,21.91872 L9.83296,22.9853867 Z M7.11424,22.9853867 L5.75488,22.9853867 L5.75488,21.91872 L7.11424,21.91872 L7.11424,22.9853867 Z M4.39552,22.9853867 L3.03616,22.9853867 L3.03616,21.91872 L4.39552,21.91872 L4.39552,22.9853867 Z" id="形状"></path>
                            <polygon id="路径" points="1.6768 22.17472 0.82944 22.17472 0.80384 21.32736 1.04448 21.31968 1.06496 21.93152 1.6768 21.93152"></polygon>
                            <path d="M0.930461538,19.968 L0.874666667,18.60864 L1.20287179,18.60864 L1.25866667,19.968 L0.930461538,19.968 Z M0.818871795,17.24928 L0.759794872,15.88992 L1.07158974,15.88992 L1.12738462,17.24928 L0.818871795,17.24928 Z M0.704,14.53056 L0.648205128,13.1712 L0.956717949,13.1712 L1.01579487,14.53056 L0.704,14.53056 Z M0.589128205,11.8144 L0.533333333,10.45504 L0.845128205,10.45504 L0.900923077,11.8144 L0.589128205,11.8144 Z M0.477538462,9.09568 L0.418461538,7.73632 L0.73025641,7.73632 L0.786051282,9.09568 L0.477538462,9.09568 Z M0.362666667,6.3744 L0.306871795,5.0176 L0.615384615,5.0176 L0.674461538,6.37696 L0.362666667,6.3744 Z M0.247794872,3.65824 L0.192,2.29888 L0.503794872,2.29888 L0.559589744,3.65824 L0.247794872,3.65824 Z" id="形状"></path>
                            <polygon id="路径" points="0.13824 0.93696 0.11008 0.08448 0.96256 0.08448 0.96256 0.32768 0.36096 0.32768 0.37888 0.92928"></polygon>
                            <path d="M19.9936,1.09781333 L18.63424,1.09781333 L18.63424,0.08448 L19.9936,0.08448 L19.9936,1.09781333 Z M17.27488,1.09781333 L15.91552,1.09781333 L15.91552,0.08448 L17.27488,0.08448 L17.27488,1.09781333 Z M14.55616,1.09781333 L13.1968,1.09781333 L13.1968,0.08448 L14.55616,0.08448 L14.55616,1.09781333 Z M11.83744,1.09781333 L10.47808,1.09781333 L10.47808,0.08448 L11.83744,0.08448 L11.83744,1.09781333 Z M9.11872,1.09781333 L7.75936,1.09781333 L7.75936,0.08448 L9.11872,0.08448 L9.11872,1.09781333 Z M6.4,1.09781333 L5.04064,1.09781333 L5.04064,0.08448 L6.4,0.08448 L6.4,1.09781333 Z M3.68128,1.09781333 L2.32192,1.09781333 L2.32192,0.08448 L3.68128,0.08448 L3.68128,1.09781333 Z" id="形状"></path>
                            <polygon id="路径" points="21.98272 0.93696 21.96224 0.32768 21.35296 0.32768 21.35296 0.08448 22.19776 0.08448 22.22592 0.92928"></polygon>
                            <path d="M22.7865735,19.968 L22.7290074,18.60864 L23.0473143,18.60864 L23.1082667,19.968 L22.7865735,19.968 Z M22.6849862,17.24928 L22.6274201,15.88992 L22.9491132,15.88992 L23.0066794,17.24928 L22.6849862,17.24928 Z M22.569854,14.53312 L22.5089016,13.17376 L22.8305947,13.17376 L22.8881608,14.53312 L22.569854,14.53312 Z M22.4513354,11.8144 L22.3937693,10.45504 L22.7120762,10.45504 L22.7730286,11.8144 L22.4513354,11.8144 Z M22.3328169,9.09568 L22.2752508,7.73632 L22.5969439,7.73632 L22.6545101,9.09568 L22.3328169,9.09568 Z M22.2176847,6.37696 L22.1567323,5.0176 L22.4953566,5.0176 L22.5529228,6.37696 L22.2176847,6.37696 Z M22.0991661,3.65824 L22.0416,2.29888 L22.3599069,2.29888 L22.4208593,3.65824 L22.0991661,3.65824 Z" id="形状"></path>
                        </g>
                    </g>
                    <g id="freepik--Character--inject-34" transform="translate(65.792000, 12.288000)">
                        <path d="M28.16,13.7728 C28.39552,14.11328 28.58496,14.4 28.77952,14.71744 C28.97408,15.03488 29.1584,15.34208 29.3376,15.66208 C29.696,16.29696 30.0288,16.94208 30.33344,17.61792 C30.647008,18.2919561 30.9238924,18.9824579 31.16288,19.6864 C31.4179377,20.4088313 31.6198621,21.1489355 31.76704,21.9008 L31.86432,22.48448 L31.87712,22.55872 L31.89248,22.65088 C31.89248,22.74048 31.91296,22.81728 31.91552,22.90688 C31.9206984,23.0075068 31.9206984,23.1083332 31.91552,23.20896 L31.90272,23.37024 L31.87456,23.54944 C31.8529417,23.6765923 31.8203944,23.8016426 31.77728,23.9232 C31.7302781,24.0583995 31.6702633,24.1887172 31.59808,24.31232 C31.4544057,24.5629401 31.2620443,24.7822843 31.03232,24.95744 C30.6942026,25.2145249 30.2974302,25.3834391 29.87776,25.44896 C29.6020154,25.4941103 29.3220407,25.5078513 29.0432,25.48992 C28.8154919,25.4793292 28.5888045,25.4528111 28.3648,25.41056 C27.9691401,25.3344184 27.5784523,25.2343955 27.19488,25.11104 C26.4938688,24.8761463 25.8096266,24.5938964 25.14688,24.26624 C24.4931952,23.9510461 23.8588952,23.5971375 23.24736,23.2064 L23.98464,21.57312 C25.2563954,21.9169474 26.5449055,22.195498 27.84512,22.40768 C28.1324952,22.451125 28.4223812,22.4759235 28.71296,22.48192 C28.8986824,22.4978761 29.0857276,22.4769966 29.26336,22.42048 C29.27872,22.40768 29.21984,22.38976 29.05088,22.5024 C28.910685,22.6049229 28.80383,22.7465058 28.74368,22.90944 C28.7276763,22.9493292 28.7148367,22.9904161 28.70528,23.03232 L28.68992,23.11424 C28.6906961,23.1287363 28.6906961,23.1432637 28.68992,23.15776 C28.68992,23.17056 28.68992,23.15776 28.68992,23.15776 L28.68992,23.12448 L28.68992,23.07072 L28.57472,22.64064 C28.2035851,21.4390288 27.7219548,20.2743747 27.136,19.1616 C26.84672,18.58304 26.52928,18.01216 26.20672,17.4464 C26.04544,17.16224 25.87904,16.8832 25.71264,16.60416 C25.54624,16.32512 25.36704,16.03328 25.21856,15.80032 L28.16,13.7728 Z" id="路径" fill="#FFB573"></path>
                        <path d="M24.26624,21.71136 L23.1552,20.60544 L22.05184,23.0656 C22.05184,23.0656 23.09632,23.64672 24.0256,23.22432 L24.26624,21.71136 Z" id="路径" fill="#FFB573"></path>
                        <polygon id="路径" fill="#FFB573" points="21.51424 19.72224 20.69504 21.80096 22.04928 23.0656 23.1552 20.60544"></polygon>
                        <polygon id="矩形" fill="#407BFF" transform="translate(12.728221, 23.375969) rotate(9.990000) translate(-12.728221, -23.375969) " points="1.90710064 12.5548487 23.5493406 12.5548487 23.5493406 34.1970887 1.90710064 34.1970887"></polygon>
                        <polygon id="矩形" fill="#FFFFFF" opacity="0.6" transform="translate(12.728221, 23.375969) rotate(9.990000) translate(-12.728221, -23.375969) " points="1.90710064 12.5548487 23.5493406 12.5548487 23.5493406 34.1970887 1.90710064 34.1970887"></polygon>
                        <polygon id="矩形" fill="#FFFFFF" transform="translate(12.727182, 23.374486) rotate(9.990000) translate(-12.727182, -23.374486) " points="2.9595021 13.6068061 22.4948621 13.6068061 22.4948621 33.1421661 2.9595021 33.1421661"></polygon>
                        <circle id="椭圆形" fill="#407BFF" opacity="0.3" transform="translate(11.787934, 18.935729) rotate(-35.010000) translate(-11.787934, -18.935729) " cx="11.7879339" cy="18.9357294" r="3.60704"></circle>
                        <polygon id="路径" fill="#407BFF" opacity="0.2" points="16.29696 24.18688 9.84832 28.70272 6.88384 24.46848 2.01728 27.87584 1.41312 31.30368 20.65152 34.69056 21.25568 31.26528"></polygon>
                        <path d="M17.35424,6.01856 C17.35424,6.19008 17.27232,6.33088 17.15968,6.33344 C17.04704,6.336 16.95488,6.19776 16.95232,6.0288 C16.94976,5.85984 17.0368,5.71648 17.14688,5.71648 C17.25696,5.71648 17.35168,5.8496 17.35424,6.01856 Z" id="路径" fill="#263238"></path>
                        <path d="M17.28768,6.32832 C17.0944409,6.85300206 16.8309181,7.34904493 16.50432,7.80288 C16.7434248,7.96577566 17.0420268,8.01538665 17.32096,7.93856 L17.28768,6.32832 Z" id="路径" fill="#FF5652"></path>
                        <path d="M17.95584,5.06112 C17.929216,5.0663792 17.9015932,5.06085463 17.87904,5.04576 C17.6756962,4.89148201 17.4089907,4.84831025 17.16736,4.93056 C17.1157545,4.95176773 17.0567277,4.92712548 17.03552,4.87552 C17.0143123,4.82391451 17.0389545,4.76488774 17.09056,4.74368 C17.3965032,4.64191049 17.7327126,4.69334194 17.99424,4.88192 C18.0392703,4.91316256 18.0506965,4.97486433 18.01984,5.02016 C18.0045493,5.04151608 17.981637,5.05617999 17.95584,5.06112 L17.95584,5.06112 Z" id="路径" fill="#263238"></path>
                        <path d="M22.28992,6.6688 C22.1824,8.24064 22.30528,11.41248 23.50592,12.3008 C23.50592,12.3008 23.21152,13.5808 20.36224,13.94176 C17.23136,14.33344 18.67008,12.57472 18.67008,12.57472 C20.32896,11.95008 20.12672,10.688 19.67872,9.53344 L22.28992,6.6688 Z" id="路径" fill="#FFB573"></path>
                        <path d="M30.05184,75.1612855 L30.03392,75.1612855 C29.956354,75.0802634 29.9131481,74.9097468 29.9264,74.7369469 C29.9279227,74.6009007 29.9598554,74.4733566 30.01344,74.389296 C30.25408,73.980295 30.95552,74.1592329 30.98624,74.1643454 C31.0053788,74.1716194 31.0210494,74.1990028 31.0272,74.2359206 C31.0327573,74.2730715 31.0267196,74.3132642 31.01184,74.3381709 C30.848,74.6040216 30.30528,75.335111 30.05184,75.1612855 Z M30.85312,74.3228334 C30.61504,74.2870458 30.2208,74.2819332 30.08512,74.5222214 C30.054057,74.5724083 30.0353864,74.6469815 30.03392,74.7267219 C30.03392,74.9158849 30.06976,74.9516725 30.08256,74.96701 C30.208,75.0948228 30.59456,74.7062718 30.85312,74.3228334 Z" id="形状" fill="#407BFF"></path>
                        <path d="M30.6864297,74.4912538 C30.4022996,74.3610074 30.1181694,74.1360364 30.0755499,73.9071186 C30.0523559,73.7921485 30.090281,73.6703214 30.1664716,73.615051 C30.2371445,73.5481412 30.3250912,73.5265823 30.4079822,73.5558481 C30.7517796,73.6545196 31.1097836,74.4596789 31.1268314,74.4912538 C31.138323,74.5151451 31.138323,74.5462997 31.1268314,74.570191 C31.117814,74.5955201 31.0988478,74.6110178 31.0785293,74.6096596 C30.9444982,74.5957427 30.8125234,74.5558891 30.6864297,74.4912538 L30.6864297,74.4912538 Z M30.42503,73.7216162 L30.3852517,73.7216162 C30.3315242,73.7019659 30.2742898,73.7164212 30.2289802,73.7610848 C30.1693129,73.8163408 30.1778368,73.8597563 30.1806781,73.8794906 C30.2261389,74.0886741 30.6693819,74.3807417 30.9677185,74.4557321 C30.8372074,74.1481577 30.6498328,73.8946888 30.42503,73.7216162 L30.42503,73.7216162 Z" id="形状" fill="#407BFF"></path>
                        <path d="M14.50752,78.6994208 C14.23616,78.6994208 13.97504,78.6188996 13.88544,78.3665998 C13.8391865,78.2279972 13.8391865,78.0435475 13.88544,77.9049449 C13.9209569,77.7834359 13.9780588,77.6965298 14.04416,77.6633813 C14.39488,77.4593942 15.13472,78.3397594 15.16544,78.377336 C15.1836071,78.4011112 15.1927986,78.4460832 15.18848,78.4900657 C15.1856474,78.5328602 15.1702634,78.5672695 15.15008,78.575955 C14.9379085,78.6545885 14.7229733,78.6958876 14.50752,78.6994208 L14.50752,78.6994208 Z M14.17216,77.8405279 C14.1398681,77.8317625 14.1071719,77.8317625 14.07488,77.8405279 C14.0338919,77.8600632 13.99864,77.9145306 13.9776,77.9908342 C13.94176,78.1196681 13.95456,78.1840851 13.9776,78.2216616 C14.07488,78.5061699 14.60992,78.511538 15.0016,78.3988083 C14.7454211,78.0996535 14.4635124,77.9099061 14.17216,77.8405279 Z" id="形状" fill="#407BFF"></path>
                        <path d="M15.4006186,78.1942233 L15.3731135,78.1942233 C15.0293,78.0680623 14.341673,77.5548166 14.4035594,77.2881583 C14.4035594,77.2250778 14.468884,77.1476608 14.6545433,77.1304571 C14.7890855,77.1193061 14.923243,77.1545286 15.0258619,77.2279451 C15.386866,77.4745324 15.4659432,78.1110718 15.4659432,78.1397447 C15.4684767,78.1590108 15.4578537,78.1778366 15.4384381,78.1884887 C15.4271888,78.1943933 15.4136402,78.1964477 15.4006186,78.1942233 Z M14.7129916,77.2336797 L14.6579814,77.2336797 C14.5376467,77.2336797 14.5307704,77.285291 14.5273323,77.2967601 C14.4963891,77.4573286 14.9570992,77.870219 15.3043508,78.0336548 C15.273762,77.7647301 15.1440455,77.5103081 14.9330322,77.305362 C14.8700219,77.261996 14.7912371,77.2377361 14.7095534,77.236547 L14.7129916,77.2336797 Z" id="形状" fill="#407BFF"></path>
                        <polygon id="路径" fill="#FFB573" points="17.46688 78.03136 15.35488 78.03136 15.14496 73.14176 17.25696 73.14176"></polygon>
                        <polygon id="路径" fill="#FFB573" points="33.25952 73.57184 31.30112 74.10944 28.79488 69.52448 30.75328 68.98688"></polygon>
                        <path d="M31.00672,73.89696 L33.12128,72.81408 C33.1986223,72.7765468 33.2915931,72.79662 33.34656,72.86272 L34.5728,74.3424 C34.6323292,74.4162171 34.6550963,74.5130824 34.634683,74.605689 C34.6142697,74.6982957 34.5528873,74.776612 34.46784,74.81856 C33.72544,75.18208 33.344,75.33056 32.41984,75.79904 C31.84896,76.09088 30.14912,77.35552 29.29152,77.59104 C28.43392,77.82656 28.10112,76.99456 28.43136,76.82304 C29.5149903,76.265953 30.3486945,75.3207226 30.76608,74.176 C30.8088845,74.0563461 30.894657,73.9568864 31.00672,73.89696 Z" id="路径" fill="#263238"></path>
                        <path d="M15.36,77.78816 L17.664,77.78816 C17.7498249,77.7883981 17.8241281,77.8478407 17.8432,77.93152 L18.26048,79.81056 C18.2819233,79.9024582 18.2595676,79.9991057 18.1999475,80.0722531 C18.1403274,80.1454005 18.0501745,80.1867886 17.95584,80.18432 C17.12384,80.17152 15.92064,80.12288 14.88384,80.12288 C13.66016,80.12288 12.60544,80.18944 11.17184,80.18944 C10.304,80.18944 10.06336,79.31136 10.42688,79.232 C12.07808,78.87104 13.4272,78.83264 14.85568,77.952 C15.0054891,77.8519821 15.1800123,77.7952843 15.36,77.78816 Z" id="路径" fill="#263238"></path>
                        <path d="M24.44288,16.21248 C24.66304,16.77824 24.90624,17.3312 25.152,17.85088 C25.57184,18.74944 25.99168,19.5328 26.29632,20.07296 C26.56768,20.56192 26.74688,20.84096 26.74688,20.84096 L31.35488,18.55232 C31.35488,18.55232 29.49632,13.2096 27.55584,12.61312 C25.57184,12.032 23.44704,13.66528 24.44288,16.21248 Z" id="路径" fill="#263238"></path>
                        <path d="M26.48832,16.73984 C26.0864,17.03424 25.79968,17.8304 25.59488,18.7648 C25.85088,19.2768 26.10688,19.7248 26.29632,20.07296 C26.56768,20.56192 26.74688,20.84096 26.74688,20.84096 L27.27424,20.58496 C27.2639245,19.2644331 26.9970003,17.9585041 26.48832,16.73984 L26.48832,16.73984 Z" id="路径" fill="#000000" opacity="0.2"></path>
                        <path d="M14.6892753,19.61984 C14.6892753,20.33664 14.7072,21.12768 14.7456,22.00064 C14.85056,24.36864 15.10912,27.32032 15.6032,30.9888 L26.89792,30.9888 C26.97728,29.25568 25.88672,20.79488 27.56096,12.62336 C26.3112014,12.3839672 25.0473843,12.2249212 23.77728,12.1472 C22.1777542,12.0550009 20.5742458,12.0550009 18.97472,12.1472 C17.878547,12.2599953 16.7925369,12.4559735 15.72608,12.73344 C15.72608,12.73344 14.68672,13.90848 14.6892753,19.61984 Z" id="路径" fill="#263238"></path>
                        <path d="M17.59488,16.26624 C17.4270296,16.6176525 17.2398635,16.9595083 17.03424,17.29024 C16.84736,17.59232 16.65792,17.88416 16.46336,18.16576 C16.07424,18.72896 15.6672,19.27168 15.23968,19.8016 C14.3790962,20.8772597 13.4256706,21.8752299 12.3904,22.784 C11.8383064,23.2679169 11.2465767,23.7046493 10.62144,24.0896 L10.36544,24.23808 L10.29888,24.27392 L10.20672,24.32 L10.01984,24.4096 C9.77939914,24.5229995 9.52691865,24.6088772 9.2672,24.6656 C8.80732615,24.7579886 8.3363523,24.7821412 7.86944,24.73728 C7.09018316,24.6445075 6.33304849,24.416674 5.632,24.064 C5.30763648,23.9051059 4.99381677,23.7255361 4.69248,23.5264 C4.38723551,23.3285477 4.09559524,23.110459 3.81952,22.8736 L4.72576,21.3376 C5.83424,21.62944 7.08352,21.89056 7.94368,21.76768 C8.12151114,21.7507058 8.29489112,21.7021594 8.45568,21.62432 C8.50857652,21.5984284 8.55838456,21.5666543 8.60416,21.5296 L8.6272,21.50656 L8.64256,21.50656 L8.6784,21.4784 L8.83456,21.37088 C9.27285668,21.0370144 9.68849167,20.6744028 10.07872,20.28544 C10.9144602,19.439625 11.6919213,18.5381464 12.40576,17.5872 C12.77184,17.10848 13.12512,16.61696 13.4656,16.12288 C13.632,15.86688 13.7984,15.63136 13.952,15.38816 C14.1056,15.14496 14.2592,14.89664 14.33856,14.74048 L17.59488,16.26624 Z" id="路径" fill="#FFB573"></path>
                        <path d="M5.17632,21.55008 L3.22816,20.62592 L3.05152,23.23968 C3.05152,23.23968 4.56704,23.49568 5.36832,22.90944 L5.17632,21.55008 Z" id="路径" fill="#FFB573"></path>
                        <polygon id="路径" fill="#FFB573" points="0.77312 21.07136 1.5232 23.06304 3.05152 23.23968 3.22816 20.62592"></polygon>
                        <path d="M18.99008,14.88128 C18.92352,16.90112 14.76608,21.55008 14.76608,21.55008 L10.37568,18.688 C10.37568,18.688 11.776,16.0768 13.568,14.19008 C16.30464,11.34848 19.06944,12.45952 18.99008,14.88128 Z" id="路径" fill="#263238"></path>
                        <polygon id="路径" fill="#000000" opacity="0.2" points="15.14496 73.14176 15.25248 75.66336 17.36704 75.66336 17.25952 73.14176"></polygon>
                        <polygon id="路径" fill="#000000" opacity="0.2" points="30.75328 68.98688 28.79488 69.52704 30.08768 71.88992 32.04608 71.34976"></polygon>
                        <path d="M23.04,5.53984 C22.95552,7.63392 23.0144,8.86784 21.98016,9.96096 C20.42368,11.60704 17.82272,10.70336 17.28,8.6272 C16.79104,6.75584 17.0112,3.64544 19.04128,2.76992 C19.9495,2.37227341 20.9989477,2.47392576 21.8139653,3.03848985 C22.628983,3.60305393 23.093031,4.54980258 23.04,5.53984 Z" id="路径" fill="#FFB573"></path>
                        <path d="M18.85952,6.53824 C18.10432,6.00064 17.36448,4.89216 17.42336,4.06784 C16.72448,4.03968 16.256,2.88768 16.64,2.048 C16.88064,2.58816 17.71264,2.19136 18.03776,1.76384 C17.86368,1.35168 17.89184,0.66816 19.08736,0.18432 C18.98752,0.53248 19.03872,1.11872 20.23936,0.69632 C21.696,0.18432 24.256,0.52736 23.50592,2.26048 C24.52992,2.44736 25.86368,4.56448 24.73216,5.67808 C23.60064,6.79168 23.36768,8.59136 22.4,8.77568 C21.43232,8.96 18.91584,9.024 18.85952,6.53824 Z" id="路径" fill="#263238"></path>
                        <path d="M22.82496,2.19136 C23.663169,1.84257974 24.6311923,2.11477008 25.1648,2.84928 C24.4282605,2.49766268 23.6368153,2.27512283 22.82496,2.19136 L22.82496,2.19136 Z" id="路径" fill="#263238"></path>
                        <path d="M19.40992,6.44864 C19.3888958,6.91384528 19.2152599,7.35918093 18.91584,7.71584 C18.51648,8.18176 18.07872,7.9104 17.98912,7.36 C17.90976,6.86592 18.0224,6.02624 18.51904,5.76256 C19.01568,5.49888 19.42784,5.888 19.40992,6.44864 Z" id="路径" fill="#FFB573"></path>
                        <path d="M19.6096,30.9888 C19.6096,30.9888 18.61376,46.97088 20.50304,52.864 C23.49312,62.19776 28.82816,71.73376 28.82816,71.73376 L32.64256,70.58688 C32.64256,70.58688 28.44672,60.52096 27.06688,52.66688 C25.82784,45.60384 26.89792,36.76672 26.89792,30.99648 L19.6096,30.9888 Z" id="路径" fill="#407BFF"></path>
                        <path d="M19.456,34.56 C20.52096,34.25024 21.35296,34.368 21.568,35.3152 C22.1312,37.79072 20.4416,44.32128 19.59936,47.3088 C19.2512,43.008 19.33056,37.888 19.456,34.56 Z" id="路径" fill="#000000" opacity="0.2"></path>
                        <path d="M27.7504,70.64064 C27.73504,70.64064 28.74624,71.8208 28.74624,71.8208 L32.91392,70.5664 L32.384,69.1584 L27.7504,70.64064 Z" id="路径" fill="#263238"></path>
                        <path d="M15.616,30.9888 C15.616,30.9888 12.43392,44.47232 12.20864,50.91328 C11.95264,58.1376 14.47936,75.1744 14.47936,75.1744 L18.06336,75.1744 C18.06336,75.1744 18.50368,58.00448 18.6624,51.42528 C18.83648,44.25728 23.04512,30.9888 23.04512,30.9888 L15.616,30.9888 Z" id="路径" fill="#407BFF"></path>
                        <path d="M13.77792,73.75104 C13.76256,73.75104 13.98016,75.23584 13.98016,75.23584 L18.33216,75.23584 L18.44992,73.90976 L13.77792,73.75104 Z" id="路径" fill="#263238"></path>
                        <path d="M17.18272,11.65312 C17.66912,11.48416 21.35808,11.01568 24.03584,11.15904 C25.57184,11.24096 26.42688,11.41504 27.05152,11.70944 C27.67616,12.00384 26.55744,13.53216 26.04032,13.71904 C26.25024,14.30272 25.08544,15.04768 24.4224,15.40096 C24.1664,15.9488 21.53728,16.45568 20.00128,15.27808 C18.82112,14.37184 15.80288,12.13184 17.18272,11.65312 Z" id="路径" fill="#407BFF"></path>
                    </g>
                </g>
                <g filter="url(#filter-1)" id="plus-square">
                    <g transform="translate(53.000000, 35.000000) rotate(-1.000000) translate(-53.000000, -35.000000) translate(48.000000, 30.000000)">
                        <rect id="矩形" fill="#000000" fill-rule="nonzero" opacity="0" x="0" y="0" width="10" height="10"></rect>
                        <path d="M3.203125,5.3125 L4.6875,5.3125 L4.6875,6.796875 C4.6875,6.83984375 4.72265625,6.875 4.765625,6.875 L5.234375,6.875 C5.27734375,6.875 5.3125,6.83984375 5.3125,6.796875 L5.3125,5.3125 L6.796875,5.3125 C6.83984375,5.3125 6.875,5.27734375 6.875,5.234375 L6.875,4.765625 C6.875,4.72265625 6.83984375,4.6875 6.796875,4.6875 L5.3125,4.6875 L5.3125,3.203125 C5.3125,3.16015625 5.27734375,3.125 5.234375,3.125 L4.765625,3.125 C4.72265625,3.125 4.6875,3.16015625 4.6875,3.203125 L4.6875,4.6875 L3.203125,4.6875 C3.16015625,4.6875 3.125,4.72265625 3.125,4.765625 L3.125,5.234375 C3.125,5.27734375 3.16015625,5.3125 3.203125,5.3125 Z" id="路径" fill="#000000" fill-rule="nonzero"></path>
                        <path d="M8.59375,1.09375 L1.40625,1.09375 C1.23339844,1.09375 1.09375,1.23339844 1.09375,1.40625 L1.09375,8.59375 C1.09375,8.76660156 1.23339844,8.90625 1.40625,8.90625 L8.59375,8.90625 C8.76660156,8.90625 8.90625,8.76660156 8.90625,8.59375 L8.90625,1.40625 C8.90625,1.23339844 8.76660156,1.09375 8.59375,1.09375 Z M8.203125,8.203125 L1.796875,8.203125 L1.796875,1.796875 L8.203125,1.796875 L8.203125,8.203125 Z" id="形状" fill="#000000" fill-rule="nonzero"></path>
                    </g>
                </g>
            </g>
        </g>
    </g>
</svg>