<svg xmlns="http://www.w3.org/2000/svg" viewBox="0 0 254.19 71.71"><defs><style>.cls-1{fill:#2d333d;}</style></defs><g id="图层_2" data-name="图层 2"><g id="Icon"><path class="cls-1" d="M115.31,41c.32.76.63,1.53.94,2.3.31-.79.63-1.58,1-2.35s.68-1.51,1.06-2.21l14.16-26.5a3.19,3.19,0,0,1,.54-.79,1.62,1.62,0,0,1,.63-.43,2.63,2.63,0,0,1,.78-.17c.28,0,.63,0,1,0h6.72V58.64h-7.84V27.74c0-.57,0-1.2.05-1.88s.08-1.38.15-2.09L120,50.9a3.77,3.77,0,0,1-1.29,1.44,3.36,3.36,0,0,1-1.85.51h-1.22a3.37,3.37,0,0,1-1.86-.51,3.77,3.77,0,0,1-1.29-1.44L97.86,23.68q.14,1.08.18,2.13c0,.69,0,1.34,0,1.93v30.9H90.25V10.81H97q.59,0,1,0a2.63,2.63,0,0,1,.78.17,1.65,1.65,0,0,1,.64.43,3.22,3.22,0,0,1,.57.79l14.29,26.56C114.64,39.5,115,40.23,115.31,41Z"/><path class="cls-1" d="M161.24,14.81a4.77,4.77,0,0,1-.43,2,5.79,5.79,0,0,1-1.14,1.62,5.57,5.57,0,0,1-1.67,1.1,10.92,10.92,0,0,0-2.06,2,10.5,10.5,0,0,0-2-2,5.25,5.25,0,0,1-2.74-2.72,4.77,4.77,0,0,1-.42-2,5.26,5.26,0,0,1,1.53-3.7A5.12,5.12,0,0,1,153.94,10a4.88,4.88,0,0,1,2-.42A5.09,5.09,0,0,1,158,10a5.32,5.32,0,0,1,2.81,2.76A5.05,5.05,0,0,1,161.24,14.81Zm-1.23,14V58.64h-8.17V28.79a4.09,4.09,0,0,1,4.09-4.09h0A4.09,4.09,0,0,1,160,28.79Z"/><path class="cls-1" d="M177.94,9.48V58.64h-8.17V9.48Z"/><path class="cls-1" d="M195.44,9.48V37.63H197a2.86,2.86,0,0,0,1.29-.23,3.22,3.22,0,0,0,1-.86l8.44-10.42a5,5,0,0,1,1.19-1,3.2,3.2,0,0,1,1.65-.38H218L207.45,37.3a14.52,14.52,0,0,1-1.16,1.28,8.32,8.32,0,0,1-1.29,1,6.05,6.05,0,0,1,1.22,1.15c.36.45.71.92,1.06,1.43L218.6,58.64h-7.38a3.6,3.6,0,0,1-1.62-.33,3.17,3.17,0,0,1-1.19-1.13l-8.64-12.86a2.68,2.68,0,0,0-1-1,3.77,3.77,0,0,0-1.49-.23h-1.85V58.64h-8.17V9.48Z"/><path class="cls-1" d="M235.7,68a3.14,3.14,0,0,1-.95,1.3,2.84,2.84,0,0,1-1.77.45H226.9l6.35-13.59L219.52,24.7h7.15a2.3,2.3,0,0,1,1.52.46,3.2,3.2,0,0,1,.79,1.06l7.25,17.6a14.51,14.51,0,0,1,.62,1.79c.18.61.34,1.23.47,1.85.17-.64.37-1.26.58-1.85s.43-1.21.67-1.82l6.82-17.57a2.45,2.45,0,0,1,.88-1.09,2.28,2.28,0,0,1,1.37-.43h6.55Z"/><path class="cls-1" d="M75.56,48.49A11,11,0,0,0,65.41,40L56.7,1.71,56.31.07A9,9,0,0,0,49.08,2.4L30.94,19.2l-22.59-7A10,10,0,0,0,0,13.36H0L11.13,62.81a11.47,11.47,0,0,0,4.49,6.9,11,11,0,0,0,8.76,1.72l42.9-9.77h0a11,11,0,0,0,8.28-13.17ZM67.5,46.7A5,5,0,0,1,66,55.81L34.55,63a11,11,0,0,0-2.22-9.75l31.39-7.15A5,5,0,0,1,67.5,46.7ZM19.27,64.93a5,5,0,0,1-2.21-3.12L7.11,18.13l23.72,7.32a3,3,0,0,0,2.92-.67L52,7.91l7.51,33-38,8.66h0a3,3,0,0,0,1.33,5.85,5,5,0,0,1,6,3.77,5,5,0,0,1-3.77,6h0L23,65.58A4.91,4.91,0,0,1,19.27,64.93Z"/></g></g></svg>