<svg xmlns="http://www.w3.org/2000/svg" viewBox="0 0 202.78 188.07"><defs><style>.cls-1,.cls-2{fill:#2d333d;}.cls-2{opacity:0.3;}</style></defs><g id="图层_2" data-name="图层 2"><g id="图层_1-2" data-name="图层 1"><path class="cls-1" d="M1,48.31a1.41,1.41,0,0,0-.82,1.93q4.43,9.61,8,19.59l34.89,95.85A34,34,0,0,0,86.67,186l1.56-.57h0L181,151.66c16.52-6,25.7-24.07,20.09-40.72A32.23,32.23,0,0,0,166.47,89.3L141.69,21.23q-3.62-9.94-6.42-20.18A1.41,1.41,0,0,0,133.4.1a47.75,47.75,0,0,0-22.28,18.35L82.68,66.8l-53.82-19A47.53,47.53,0,0,0,1,48.31ZM81.73,167.59l-1.56.56a15,15,0,0,1-19.24-9L28.56,70.26a1.42,1.42,0,0,1,1.8-1.82l46,16.27a19,19,0,0,0,22.72-8.28l24.73-42.05a1.42,1.42,0,0,1,2.56.23l22,60.46L66.22,125a9.5,9.5,0,1,0,6.5,17.85,13.18,13.18,0,0,1,9,24.77Zm102-45.28c0,.12,0,.25,0,.38s-.06.44-.1.66l-.09.48c-.06.28-.13.56-.21.83s-.13.4-.19.59a3.62,3.62,0,0,1-.13.35,12.88,12.88,0,0,1-.93,2l-.06.11a13.83,13.83,0,0,1-7.19,6L111.3,156.83a1.42,1.42,0,0,1-1.9-1.34,32.23,32.23,0,0,0-7.7-21.18,1.41,1.41,0,0,1,.58-2.25l63.85-23.24a13.17,13.17,0,0,1,11.9,1.5l.14.1a13,13,0,0,1,1.18.93l.13.11a13.11,13.11,0,0,1,2.12,2.45l.23.38c.21.34.41.7.59,1.06l.21.43a15.09,15.09,0,0,1,.6,1.55c.11.37.2.75.28,1.13l.06.28a10,10,0,0,1,.16,1.1,1,1,0,0,1,0,.17c0,.32,0,.63,0,.94v.35C183.78,121.64,183.76,122,183.73,122.31Z"/><path class="cls-2" d="M166.47,89.3a31.77,31.77,0,0,1,7.09-.12l4.93-52.4a2.83,2.83,0,0,0-2.82-3.1H146.23Z"/><path class="cls-2" d="M28.86,47.75l53.82,19,19.48-33.12H40.4A11.34,11.34,0,0,0,29.11,44l-.35,3.76Z"/><path class="cls-2" d="M96.63,182.38h57.83a11.34,11.34,0,0,0,11.29-10.27l1.45-15.41Z"/><path class="cls-2" d="M43.07,165.68,22.88,110.19,17.25,170a11.33,11.33,0,0,0,11.29,12.4H56.22A33.88,33.88,0,0,1,43.07,165.68Z"/></g></g></svg>