<svg xmlns="http://www.w3.org/2000/svg" viewBox="0 0 280.3 307.25"><defs><style>.cls-1,.cls-2{fill:#2d333d;}.cls-2{opacity:0.3;}</style></defs><g id="图层_2" data-name="图层 2"><g id="图层_1-2" data-name="图层 1"><path class="cls-1" d="M46.45,45.07a1.32,1.32,0,0,0-.77,1.8q4.14,9,7.52,18.27l32.54,89.43a31.74,31.74,0,0,0,40.68,19l1.45-.53h0l86.59-31.51c15.41-5.61,24-22.46,18.74-38a30.07,30.07,0,0,0-32.33-20.19l-23.12-63.5q-3.37-9.28-6-18.83A1.32,1.32,0,0,0,170,.09a44.55,44.55,0,0,0-20.79,17.12L122.7,62.32,72.49,44.55A44.39,44.39,0,0,0,46.45,45.07Zm75.36,111.27-1.45.53a14,14,0,0,1-18-8.37l-30.19-83a1.32,1.32,0,0,1,1.68-1.7L116.78,79A17.73,17.73,0,0,0,138,71.3l23.08-39.23a1.32,1.32,0,0,1,2.38.22L184,88.7l-76.62,27.88a8.86,8.86,0,0,0,6.06,16.66,12.29,12.29,0,1,1,8.41,23.1ZM217,114.1c0,.12,0,.24-.05.36a6,6,0,0,1-.09.61c0,.15-.05.3-.09.45s-.12.52-.19.78l-.18.55-.12.33a13.09,13.09,0,0,1-.87,1.86.41.41,0,0,0,0,.09,12.87,12.87,0,0,1-6.71,5.62l-59.23,21.56a1.31,1.31,0,0,1-1.76-1.25,30,30,0,0,0-7.19-19.76,1.32,1.32,0,0,1,.55-2.1l59.55-21.68a12.29,12.29,0,0,1,11.11,1.4l.13.09a13.13,13.13,0,0,1,1.1.87l.12.1a12.08,12.08,0,0,1,2,2.29c.07.12.14.24.22.35.19.32.38.65.55,1l.19.39a14,14,0,0,1,.56,1.45c.11.35.19.7.27,1.05a2,2,0,0,0,0,.26c.06.35.12.69.15,1a.92.92,0,0,1,0,.16,8.77,8.77,0,0,1,0,.88v.32C217,113.48,217,113.79,217,114.1Z"/><path class="cls-2" d="M200.87,83.31a29.86,29.86,0,0,1,6.61-.12l4.6-48.88a2.65,2.65,0,0,0-2.64-2.89H182Z"/><path class="cls-2" d="M72.49,44.55,122.7,62.32l18.17-30.9H83.25A10.57,10.57,0,0,0,72.72,41l-.33,3.51Z"/><path class="cls-2" d="M135.71,170.15h53.95a10.57,10.57,0,0,0,10.53-9.59l1.36-14.37Z"/><path class="cls-2" d="M85.74,154.57,66.9,102.8l-5.25,55.78a10.59,10.59,0,0,0,10.53,11.57H98A31.67,31.67,0,0,1,85.74,154.57Z"/><path class="cls-1" d="M154.71,210.14l-7.3,77.94a4.53,4.53,0,0,1-4.21,4l-9,.36a.82.82,0,0,1-.87-.93l7.31-77.94a4.53,4.53,0,0,1,4.21-4l9-.35A.82.82,0,0,1,154.71,210.14Z"/><path class="cls-1" d="M183.93,211.85l-4,42.59a.82.82,0,0,0,.87.92l1.6-.06a5.37,5.37,0,0,0,2.21-.48,6.88,6.88,0,0,0,1.81-1.51l15.86-18.11a9.73,9.73,0,0,1,2.17-1.83,5.81,5.81,0,0,1,2.85-.76l10.53-.41a.88.88,0,0,1,.59,1.55L200.13,254a30.32,30.32,0,0,1-2.15,2.22,15.46,15.46,0,0,1-2.09,1.63.19.19,0,0,0,0,.31,8.51,8.51,0,0,1,1.68,1.71c.52.72,1,1.49,1.56,2.32l15.57,25.52a1.07,1.07,0,0,1-.94,1.53l-10.6.42a5.45,5.45,0,0,1-2.68-.45,4.35,4.35,0,0,1-1.83-1.81l-12.52-21.08a3.65,3.65,0,0,0-1.51-1.61,6,6,0,0,0-2.47-.29l-2.16.09a1.13,1.13,0,0,0-1,1l-2.28,24.25a1.13,1.13,0,0,1-1.05,1l-9,.35a3.28,3.28,0,0,1-3.48-3.69l7.3-77.94a1.13,1.13,0,0,1,1-1l9-.36A3.28,3.28,0,0,1,183.93,211.85Z"/><path class="cls-1" d="M242.9,303.77a6.43,6.43,0,0,1-1.8,2.26,5.32,5.32,0,0,1-3,.87l-8.75.35a.85.85,0,0,1-.74-1.33L240.64,284l-17.71-50.66a1.1,1.1,0,0,1,1-1.39l10.57-.42a3.45,3.45,0,0,1,2.49.68,4.43,4.43,0,0,1,1.17,1.73l9.43,29.14a24.83,24.83,0,0,1,.78,3c.2,1,.36,2.05.48,3.08.4-1.08.82-2.14,1.27-3.15s.92-2.05,1.43-3.11l14.26-30a4.86,4.86,0,0,1,1.64-1.89,4.49,4.49,0,0,1,2.39-.82l9.57-.38a.85.85,0,0,1,.76,1.31Z"/><path class="cls-1" d="M115.42,235.11h0a6.24,6.24,0,0,1-3.5,1.29h-.14a3.94,3.94,0,0,0-3.67,3.49l-5,52.78a.86.86,0,0,0,.91,1l11.8-.47a1.13,1.13,0,0,0,1.06-1l4.95-52.82a2.87,2.87,0,0,0-3-3.22h-.14A4.9,4.9,0,0,1,115.42,235.11Z"/><path class="cls-1" d="M123.74,213.61c-3.09-3.53-8.89-3.3-12.66.5a9.18,9.18,0,0,0-2,10.47,7,7,0,0,0,2.88,3,12.79,12.79,0,0,1,3.13,2.32l.69.74.85-.8a17.8,17.8,0,0,1,3.58-2.58,10.4,10.4,0,0,0,3.48-3.28C126,220.6,126.11,216.32,123.74,213.61Z"/><path class="cls-1" d="M51.65,270l27-31.53-4.46,47.6a6.85,6.85,0,0,0,7.29,7.71l4.16-.16a1.19,1.19,0,0,0,1.1-1.05l7.36-78.51a.86.86,0,0,0-.92-1h0a22.38,22.38,0,0,0-15.85,7.94l-29,33.85a2,2,0,0,1-3.15.12L22.31,223.26a16.68,16.68,0,0,0-14.47-6.73h0a1.18,1.18,0,0,0-1.1,1L0,289.05a6.86,6.86,0,0,0,7.29,7.72l4.16-.16a1.2,1.2,0,0,0,1.1-1.05l5.12-54.63L39,270.54C41.86,274.49,48,274.25,51.65,270Z"/></g></g></svg>