<svg xmlns="http://www.w3.org/2000/svg" viewBox="0 0 615.61 188.07"><defs><style>.cls-1,.cls-2{fill:#fff;}.cls-2{opacity:0.3;}</style></defs><g id="图层_2" data-name="图层 2"><g id="图层_1-2" data-name="图层 1"><path class="cls-1" d="M1,48.31a1.41,1.41,0,0,0-.82,1.93q4.43,9.61,8,19.59l34.89,95.85A34,34,0,0,0,86.67,186l1.56-.57h0L181,151.66c16.52-6,25.7-24.07,20.09-40.72A32.23,32.23,0,0,0,166.47,89.3L141.69,21.23q-3.62-9.94-6.42-20.18A1.41,1.41,0,0,0,133.4.1a47.75,47.75,0,0,0-22.28,18.35L82.68,66.8l-53.82-19A47.53,47.53,0,0,0,1,48.31ZM81.73,167.59l-1.56.56a15,15,0,0,1-19.24-9L28.56,70.26a1.42,1.42,0,0,1,1.8-1.82l46,16.27a19,19,0,0,0,22.72-8.28l24.73-42.05a1.42,1.42,0,0,1,2.56.23l22,60.46L66.22,125a9.5,9.5,0,1,0,6.5,17.85,13.18,13.18,0,0,1,9,24.77Zm102-45.28c0,.12,0,.25,0,.38s-.06.44-.1.66l-.09.48c-.06.28-.13.56-.21.83s-.13.4-.19.59a3.62,3.62,0,0,1-.13.35,12.88,12.88,0,0,1-.93,2l-.06.11a13.83,13.83,0,0,1-7.19,6L111.3,156.83a1.42,1.42,0,0,1-1.9-1.34,32.23,32.23,0,0,0-7.7-21.18,1.41,1.41,0,0,1,.58-2.25l63.85-23.24a13.17,13.17,0,0,1,11.9,1.5l.14.1a13,13,0,0,1,1.18.93l.13.11a13.11,13.11,0,0,1,2.12,2.45l.23.38c.21.34.41.7.59,1.06l.21.43a15.09,15.09,0,0,1,.6,1.55c.11.37.2.75.28,1.13l.06.28a10,10,0,0,1,.16,1.1,1,1,0,0,1,0,.17c0,.32,0,.63,0,.94v.35C183.78,121.64,183.76,122,183.73,122.31Z"/><path class="cls-2" d="M166.47,89.3a31.77,31.77,0,0,1,7.09-.12l4.93-52.4a2.83,2.83,0,0,0-2.82-3.1H146.23Z"/><path class="cls-2" d="M28.86,47.75l53.82,19,19.48-33.12H40.4A11.34,11.34,0,0,0,29.11,44l-.35,3.76Z"/><path class="cls-2" d="M96.63,182.38h57.83a11.34,11.34,0,0,0,11.29-10.27l1.45-15.41Z"/><path class="cls-2" d="M43.07,165.68,22.88,110.19,17.25,170a11.33,11.33,0,0,0,11.29,12.4H56.22A33.88,33.88,0,0,1,43.07,165.68Z"/><path class="cls-1" d="M438.64,38.34,428.33,148.28a6.09,6.09,0,0,1-5.93,5.43H409.77a1.21,1.21,0,0,1-1.22-1.36L418.86,42.41A6.08,6.08,0,0,1,424.79,37h12.62A1.21,1.21,0,0,1,438.64,38.34Z"/><path class="cls-1" d="M479.81,42.41l-5.64,60.06a1.22,1.22,0,0,0,1.23,1.36h2.26a7.22,7.22,0,0,0,3.11-.55,9.2,9.2,0,0,0,2.55-2L505.67,76.5A13.4,13.4,0,0,1,508.73,74a8,8,0,0,1,4-.9h14.85a1.27,1.27,0,0,1,.83,2.22L502.63,103a39.36,39.36,0,0,1-3,3,21.46,21.46,0,0,1-3,2.19.26.26,0,0,0,0,.43,12.54,12.54,0,0,1,2.36,2.52c.74,1.05,1.47,2.18,2.2,3.38l21.93,37a1.47,1.47,0,0,1-1.32,2.13H506.83a8.13,8.13,0,0,1-3.77-.79,6.53,6.53,0,0,1-2.58-2.67L482.85,119.7a5.45,5.45,0,0,0-2.14-2.36,8.27,8.27,0,0,0-3.48-.55h-3a1.53,1.53,0,0,0-1.49,1.36l-3.2,34.2a1.53,1.53,0,0,1-1.49,1.36H455.39a4.86,4.86,0,0,1-4.91-5.43L460.79,38.34A1.51,1.51,0,0,1,462.27,37h12.62A4.86,4.86,0,0,1,479.81,42.41Z"/><path class="cls-1" d="M562.88,175.85a8.54,8.54,0,0,1-2.53,3.11,7.35,7.35,0,0,1-4.3,1.06H543.73a1.25,1.25,0,0,1-1.05-1.93l17-30.35L534.76,75a1.49,1.49,0,0,1,1.42-1.9h14.89a4.89,4.89,0,0,1,3.51,1.1,6.32,6.32,0,0,1,1.65,2.51l13.28,41.79a33.31,33.31,0,0,1,1.1,4.24c.28,1.46.51,2.93.69,4.4q.84-2.28,1.78-4.4t2-4.32l20.09-41.71a6.5,6.5,0,0,1,2.33-2.59,6,6,0,0,1,3.35-1h13.5A1.24,1.24,0,0,1,615.44,75Z"/><path class="cls-1" d="M383.26,71.48h0a8.44,8.44,0,0,1-4.92,1.64h-.2A5.31,5.31,0,0,0,373,77.85l-7,74.45a1.26,1.26,0,0,0,1.27,1.41h16.64a1.53,1.53,0,0,0,1.49-1.36l7-74.5a4.23,4.23,0,0,0-4.29-4.73h-.19A7.14,7.14,0,0,1,383.26,71.48Z"/><path class="cls-1" d="M395,41.51c-4.35-5.17-12.52-5.17-17.84,0a12.82,12.82,0,0,0-2.75,14.72,10.4,10.4,0,0,0,4.06,4.44,18.5,18.5,0,0,1,4.4,3.45l1,1.08L385,64.12a24.07,24.07,0,0,1,5-3.45,13.65,13.65,0,0,0,4.9-4.44C398.18,51.54,398.33,45.48,395,41.51Z"/><path class="cls-1" d="M293.39,117.36,331.5,74.23l-6.29,67.14a10.15,10.15,0,0,0,10.27,11.34h5.86a1.59,1.59,0,0,0,1.55-1.42L353.28,40.55A1.27,1.27,0,0,0,352,39.13h0a30.15,30.15,0,0,0-22.34,10.35L288.74,95.77a2.83,2.83,0,0,1-4.45,0L252.06,49.48a24.52,24.52,0,0,0-20.39-10.35h0a1.58,1.58,0,0,0-1.55,1.42l-9.46,100.82a10.15,10.15,0,0,0,10.28,11.34h5.86a1.6,1.6,0,0,0,1.55-1.42l7.22-77.06,30,43.13C279.6,123.1,288.31,123.1,293.39,117.36Z"/></g></g></svg>