<svg xmlns="http://www.w3.org/2000/svg" viewBox="0 0 77 72.81"><defs><style>.cls-1{fill:#2d333d;}</style></defs><g id="图层_2" data-name="图层 2"><g id="Icon"><path class="cls-1" d="M76.72,49.23a11.18,11.18,0,0,0-10.3-8.66L57.57,1.74,57.18.07a9.15,9.15,0,0,0-7.35,2.37L31.42,19.5,8.48,12.42A10.22,10.22,0,0,0,0,13.56H0L11.3,63.77a11.64,11.64,0,0,0,4.56,7,11.12,11.12,0,0,0,5.42,2,11.3,11.3,0,0,0,3.47-.24L68.31,62.6h0a11.15,11.15,0,0,0,8.41-13.37Zm-8.19-1.81A5.07,5.07,0,0,1,67,56.66L35.08,63.92a11.09,11.09,0,0,0,.06-5.22A11.21,11.21,0,0,0,32.82,54L64.7,46.76A5,5,0,0,1,68.53,47.42Zm-49,18.51a5,5,0,0,1-2.25-3.17L7.22,18.4,31.3,25.84a3.05,3.05,0,0,0,3-.68L52.76,8,60.38,41.5l-38.6,8.79h0a3,3,0,0,0,1.35,5.94,5.08,5.08,0,1,1,2.26,9.9h0l-2,.45A5,5,0,0,1,19.57,65.93Z"/></g></g></svg>