<svg xmlns="http://www.w3.org/2000/svg" viewBox="0 0 126.47 153.69"><defs><style>.cls-1{fill:#2d333d;}</style></defs><g id="图层_2" data-name="图层 2"><g id="Icon"><path class="cls-1" d="M19.33,131.52c.25.59.49,1.18.73,1.78.24-.62.48-1.22.74-1.82s.53-1.16.81-1.71l10.93-20.44a2.5,2.5,0,0,1,.42-.61,1.29,1.29,0,0,1,.48-.33,2.2,2.2,0,0,1,.6-.13c.22,0,.49,0,.79,0H40v36.9H34V121.3c0-.44,0-.93,0-1.45s.07-1.07.12-1.61L23,139.16a3,3,0,0,1-1,1.12,2.6,2.6,0,0,1-1.43.39H19.6a2.6,2.6,0,0,1-1.43-.39,3,3,0,0,1-1-1.12l-11.3-21c.07.56.11,1.11.14,1.65s0,1,0,1.49v23.84H0v-36.9H5.18c.31,0,.57,0,.79,0a2.2,2.2,0,0,1,.6.13,1.45,1.45,0,0,1,.5.33,2.51,2.51,0,0,1,.43.61l11,20.49C18.82,130.37,19.08,130.93,19.33,131.52Z"/><path class="cls-1" d="M54.76,111.32a3.56,3.56,0,0,1-.33,1.53A4.19,4.19,0,0,1,52.26,115a8.25,8.25,0,0,0-1.58,1.55A8.07,8.07,0,0,0,49.14,115a4,4,0,0,1-1.27-.86,4.07,4.07,0,0,1-.85-1.25,3.71,3.71,0,0,1-.32-1.53,4,4,0,0,1,.32-1.58,4.21,4.21,0,0,1,.85-1.28,4.16,4.16,0,0,1,1.27-.85,3.83,3.83,0,0,1,1.54-.32,4,4,0,0,1,1.58.32,4,4,0,0,1,2.17,2.13A3.82,3.82,0,0,1,54.76,111.32Zm-.94,10.78v23h-6.3v-23A3.15,3.15,0,0,1,50.67,119h0A3.15,3.15,0,0,1,53.82,122.1Z"/><path class="cls-1" d="M67.65,107.21v37.93h-6.3V107.21Z"/><path class="cls-1" d="M81.15,107.21v21.72h1.18a2.24,2.24,0,0,0,1-.18,2.71,2.71,0,0,0,.77-.66l6.5-8a3.75,3.75,0,0,1,.92-.8,2.43,2.43,0,0,1,1.28-.3h5.77l-8.14,9.73a12.16,12.16,0,0,1-.9,1,5.66,5.66,0,0,1-1,.78,4.66,4.66,0,0,1,.94.89c.27.34.55.71.82,1.1L99,145.14h-5.7a2.78,2.78,0,0,1-1.25-.26,2.41,2.41,0,0,1-.91-.87l-6.66-9.92a2.15,2.15,0,0,0-.77-.77,2.84,2.84,0,0,0-1.15-.18H81.15v12h-6.3V107.21Z"/><path class="cls-1" d="M112.21,152.33a2.4,2.4,0,0,1-.73,1,2.21,2.21,0,0,1-1.36.35h-4.7l4.9-10.49L99.73,119h5.51a1.75,1.75,0,0,1,1.18.36,2.41,2.41,0,0,1,.61.82l5.59,13.57a13.24,13.24,0,0,1,.48,1.38c.14.48.26.95.36,1.43.14-.49.28-1,.45-1.43s.33-.93.52-1.4l5.26-13.55a1.83,1.83,0,0,1,.67-.84,1.76,1.76,0,0,1,1.06-.34h5Z"/><path class="cls-1" d="M109.51,59.61A13.53,13.53,0,0,0,97,49.12L86.33,2.1l-.48-2A11.08,11.08,0,0,0,77,3L54.66,23.61,26.89,15a12.35,12.35,0,0,0-10.27,1.38h0L30.3,77.22a14.09,14.09,0,0,0,5.53,8.49,13.57,13.57,0,0,0,6.55,2.4,13.94,13.94,0,0,0,4.21-.29l52.74-12h0a13.5,13.5,0,0,0,10.18-16.19Zm-9.91-2.2a6.15,6.15,0,0,1-1.91,11.2L59.1,77.4a13.55,13.55,0,0,0-2.74-12L95,56.62A6.15,6.15,0,0,1,99.6,57.41ZM40.31,79.83A6.06,6.06,0,0,1,37.59,76L25.36,22.28l29.16,9a3.67,3.67,0,0,0,3.59-.82L80.5,9.73l9.23,40.52L43,60.89h0a3.69,3.69,0,1,0,1.64,7.19A6.14,6.14,0,0,1,52,72.72a6.15,6.15,0,0,1-4.62,7.36h0L45,80.62A6.06,6.06,0,0,1,40.31,79.83Z"/></g></g></svg>